<?xml version="1.0" encoding="UTF-8"?>
<svg width="44px" height="44px" viewBox="0 0 44 44" version="1.1" xmlns="http://www.w3.org/2000/svg" xmlns:xlink="http://www.w3.org/1999/xlink">
    <!-- Generator: Sketch 48.2 (47327) - http://www.bohemiancoding.com/sketch -->
    <title>Page 1</title>
    <desc>Created with Sketch.</desc>
    <defs>
        <polygon id="path-1" points="0 0 43.9996 0 43.9996 43.9997 0 43.9997"></polygon>
    </defs>
    <g id="SEND-Copy-4" stroke="none" stroke-width="1" fill="none" fill-rule="evenodd" transform="translate(-580.000000, -436.000000)">
        <g id="Page-1" transform="translate(424.000000, 134.000000)">
            <g transform="translate(156.000000, 302.000000)">
                <mask id="mask-2" fill="white">
                    <use xlink:href="#path-1"></use>
                </mask>
                <g id="Clip-2"></g>
                <path d="M29.8466,20.8577 C29.4486,21.2557 28.8036,21.2557 28.4056,20.8577 L23.0276,15.4797 L23.0276,30.9807 C23.0276,31.5437 22.5706,31.9997 22.0086,31.9997 C21.4456,31.9997 20.9886,31.5437 20.9886,30.9807 L20.9886,15.4797 L15.6106,20.8577 C15.2126,21.2557 14.5676,21.2557 14.1696,20.8577 C13.7716,20.4597 13.7716,19.8147 14.1696,19.4167 L21.2876,12.2987 C21.3816,12.2047 21.4936,12.1297 21.6186,12.0787 C21.8676,11.9757 22.1486,11.9757 22.3976,12.0787 C22.5216,12.1297 22.6346,12.2047 22.7286,12.2987 L29.8466,19.4167 C30.2446,19.8147 30.2446,20.4597 29.8466,20.8577 M21.9996,-0.0003 C9.8686,-0.0003 -0.0004,9.8687 -0.0004,21.9997 C-0.0004,34.1307 9.8686,43.9997 21.9996,43.9997 C34.1306,43.9997 43.9996,34.1307 43.9996,21.9997 C43.9996,9.8687 34.1306,-0.0003 21.9996,-0.0003" id="Fill-1" fill="#E840A3" mask="url(#mask-2)"></path>
            </g>
        </g>
    </g>
</svg>