<?xml version="1.0" encoding="UTF-8"?>
<svg width="32px" height="44px" viewBox="0 0 32 44" version="1.1" xmlns="http://www.w3.org/2000/svg" xmlns:xlink="http://www.w3.org/1999/xlink">
    <!-- Generator: Sketch 48.2 (47327) - http://www.bohemiancoding.com/sketch -->
    <title>Group 3</title>
    <desc>Created with Sketch.</desc>
    <defs>
        <polygon id="path-1" points="0.0004 0.0002 32.0004 0.0002 32.0004 44 0.0004 44"></polygon>
    </defs>
    <g id="SEND-Copy-4" stroke="none" stroke-width="1" fill="none" fill-rule="evenodd" transform="translate(-446.000000, -392.000000)">
        <g id="Page-1" transform="translate(424.000000, 134.000000)">
            <g transform="translate(22.000000, 258.000000)" id="Group-3">
                <g>
                    <mask id="mask-2" fill="white">
                        <use xlink:href="#path-1"></use>
                    </mask>
                    <g id="Clip-2"></g>
                    <path d="M27.0004,18.0002 L5.0004,18.0002 L5.0004,9.0002 C5.0004,5.1402 8.1414,2.0002 12.0004,2.0002 L20.0004,2.0002 C23.8594,2.0002 27.0004,5.1402 27.0004,9.0002 L27.0004,18.0002 Z M18.1154,32.0502 L18.1154,33.9232 C18.1154,35.0682 17.1664,36.0002 16.0004,36.0002 C14.8334,36.0002 13.8844,35.0682 13.8844,33.9232 L13.8844,32.0502 C13.0444,31.4132 12.5384,30.4282 12.5384,29.3842 C12.5384,27.5182 14.0914,26.0002 16.0004,26.0002 C17.9084,26.0002 19.4614,27.5182 19.4614,29.3842 C19.4614,30.4282 18.9554,31.4132 18.1154,32.0502 Z M29.0004,18.0002 L29.0004,9.0002 C29.0004,4.0382 24.9634,0.0002 20.0004,0.0002 L12.0004,0.0002 C7.0374,0.0002 3.0004,4.0382 3.0004,9.0002 L3.0004,18.0002 C1.3464,18.0002 0.0004,19.3462 0.0004,21.0002 L0.0004,41.0002 C0.0004,42.6542 1.3464,44.0002 3.0004,44.0002 L29.0004,44.0002 C30.6544,44.0002 32.0004,42.6542 32.0004,41.0002 L32.0004,21.0002 C32.0004,19.3462 30.6544,18.0002 29.0004,18.0002 Z" id="Fill-1" fill="#E840A3" mask="url(#mask-2)"></path>
                </g>
            </g>
        </g>
    </g>
</svg>