<?xml version="1.0" encoding="UTF-8"?>
<svg width="32px" height="32px" viewBox="0 0 32 32" version="1.1" xmlns="http://www.w3.org/2000/svg" xmlns:xlink="http://www.w3.org/1999/xlink">
    <!-- Generator: Sketch 48.2 (47327) - http://www.bohemiancoding.com/sketch -->
    <title>Page 1</title>
    <desc>Created with Sketch.</desc>
    <defs>
        <polygon id="path-1" points="0 0.0002 31.9998 0.0002 31.9998 32 0 32"></polygon>
    </defs>
    <g id="SEND-Copy-4" stroke="none" stroke-width="1" fill="none" fill-rule="evenodd" transform="translate(-586.000000, -442.000000)">
        <g id="Page-1" transform="translate(-282.000000, 326.000000)">
            <g transform="translate(868.000000, 116.000000)">
                <mask id="mask-2" fill="white">
                    <use xlink:href="#path-1"></use>
                </mask>
                <g id="Clip-2"></g>
                <path d="M15.9998,0.0002 C7.1778,0.0002 -0.0002,7.1772 -0.0002,16.0002 C-0.0002,24.8222 7.1778,32.0002 15.9998,32.0002 C24.8228,32.0002 31.9998,24.8222 31.9998,16.0002 C31.9998,7.1772 24.8228,0.0002 15.9998,0.0002 M22.5458,16.7272 L16.7278,16.7272 L16.7278,22.5452 C16.7278,22.9462 16.4018,23.2722 15.9998,23.2722 C15.5988,23.2722 15.2728,22.9462 15.2728,22.5452 L15.2728,16.7272 L9.4548,16.7272 C9.0528,16.7272 8.7278,16.4012 8.7278,16.0002 C8.7278,15.5992 9.0528,15.2722 9.4548,15.2722 L15.2728,15.2722 L15.2728,9.4542 C15.2728,9.0532 15.5988,8.7272 15.9998,8.7272 C16.4018,8.7272 16.7278,9.0532 16.7278,9.4542 L16.7278,15.2722 L22.5458,15.2722 C22.9468,15.2722 23.2728,15.5992 23.2728,16.0002 C23.2728,16.4012 22.9468,16.7272 22.5458,16.7272" id="Fill-1" fill="#D0D1D2" mask="url(#mask-2)"></path>
            </g>
        </g>
    </g>
</svg>