<?xml version="1.0" encoding="UTF-8"?>
<svg width="44px" height="44px" viewBox="0 0 44 44" version="1.1" xmlns="http://www.w3.org/2000/svg" xmlns:xlink="http://www.w3.org/1999/xlink">
    <!-- Generator: Sketch 48.2 (47327) - http://www.bohemiancoding.com/sketch -->
    <title>Group 3</title>
    <desc>Created with Sketch.</desc>
    <defs>
        <polygon id="path-1" points="0 0.292 43.9999 0.292 43.9999 44.2917 0 44.2917"></polygon>
    </defs>
    <g id="SEND-Copy-4" stroke="none" stroke-width="1" fill="none" fill-rule="evenodd" transform="translate(-424.000000, -135.000000)">
        <g id="Page-1" transform="translate(424.000000, 134.000000)">
            <g id="Group-3" transform="translate(0.000000, 0.708000)">
                <mask id="mask-2" fill="white">
                    <use xlink:href="#path-1"></use>
                </mask>
                <g id="Clip-2"></g>
                <path d="M30.9999,23.2917 L22.9999,23.2917 L22.9999,31.2917 C22.9999,31.8437 22.5519,32.2917 21.9999,32.2917 C21.4479,32.2917 20.9999,31.8437 20.9999,31.2917 L20.9999,23.2917 L12.9999,23.2917 C12.4479,23.2917 11.9999,22.8437 11.9999,22.2917 C11.9999,21.7397 12.4479,21.2917 12.9999,21.2917 L20.9999,21.2917 L20.9999,13.2917 C20.9999,12.7397 21.4479,12.2917 21.9999,12.2917 C22.5519,12.2917 22.9999,12.7397 22.9999,13.2917 L22.9999,21.2917 L30.9999,21.2917 C31.5519,21.2917 31.9999,21.7397 31.9999,22.2917 C31.9999,22.8437 31.5519,23.2917 30.9999,23.2917 M21.9999,0.2917 C9.8689,0.2917 -0.0001,10.1607 -0.0001,22.2917 C-0.0001,34.4227 9.8689,44.2917 21.9999,44.2917 C34.1309,44.2917 43.9999,34.4227 43.9999,22.2917 C43.9999,10.1607 34.1309,0.2917 21.9999,0.2917" id="Fill-1" fill="#E840A3" mask="url(#mask-2)"></path>
            </g>
        </g>
    </g>
</svg>