<?xml version="1.0" encoding="UTF-8"?>
<svg width="32px" height="32px" viewBox="0 0 32 32" version="1.1" xmlns="http://www.w3.org/2000/svg" xmlns:xlink="http://www.w3.org/1999/xlink">
    <!-- Generator: Sketch 48.2 (47327) - http://www.bohemiancoding.com/sketch -->
    <title>Group 15</title>
    <desc>Created with Sketch.</desc>
    <defs></defs>
    <g id="SEND-Copy-4" stroke="none" stroke-width="1" fill="none" fill-rule="evenodd" transform="translate(-54.000000, -569.000000)">
        <g id="Page-1" transform="translate(-282.000000, 326.000000)" fill="#D1D2D3">
            <g id="Group-13" transform="translate(336.000000, 229.000000)">
                <g id="Group-15" transform="translate(0.000000, 14.000000)">
                    <path d="M16,0 C7.177,0 0,7.178 0,16 C0,24.822 7.177,32 16,32 C24.823,32 32,24.822 32,16 C32,7.178 24.823,0 16,0 M22.538,16.742 L9.475,16.742 C9.065,16.742 8.734,16.409 8.734,16 C8.734,15.591 9.065,15.259 9.475,15.259 L22.538,15.259 C22.947,15.259 23.279,15.591 23.279,16 C23.279,16.409 22.947,16.742 22.538,16.742" id="Fill-6"></path>
                </g>
            </g>
        </g>
    </g>
</svg>