<?xml version="1.0" encoding="UTF-8"?>
<svg width="23px" height="31px" viewBox="0 0 23 31" version="1.1" xmlns="http://www.w3.org/2000/svg" xmlns:xlink="http://www.w3.org/1999/xlink">
    <!-- Generator: Sketch 48.2 (47327) - http://www.bohemiancoding.com/sketch -->
    <title>Fill 1</title>
    <desc>Created with Sketch.</desc>
    <defs></defs>
    <g id="SEND-Copy-4" stroke="none" stroke-width="1" fill="none" fill-rule="evenodd" transform="translate(-129.000000, -326.000000)">
        <g id="Page-1" transform="translate(-282.000000, 326.000000)" fill="#CECFD0">
            <path d="M431.5789,12.4674 L423.9599,12.4674 L414.9559,12.4674 L414.9559,6.2344 C414.9559,3.5604 417.1309,1.3854 419.8039,1.3854 L425.3449,1.3854 C428.0179,1.3854 430.1939,3.5604 430.1939,6.2344 C430.1939,6.6164 430.5029,6.9264 430.8859,6.9264 C431.2689,6.9264 431.5789,6.6164 431.5789,6.2344 C431.5789,2.7974 428.7829,0.0004 425.3449,0.0004 L419.8039,0.0004 C416.3669,0.0004 413.5709,2.7974 413.5709,6.2344 L413.5709,12.4674 C412.4239,12.4674 411.4929,13.4004 411.4929,14.5454 L411.4929,28.3984 C411.4929,29.5434 412.4239,30.4764 413.5709,30.4764 L431.5789,30.4764 C432.7249,30.4764 433.6569,29.5434 433.6569,28.3984 L433.6569,14.5454 C433.6569,13.4004 432.7249,12.4674 431.5789,12.4674 M424.0389,22.1984 L424.0389,23.4954 C424.0389,24.2894 423.3819,24.9354 422.5749,24.9354 C421.7659,24.9354 421.1089,24.2894 421.1089,23.4954 L421.1089,22.1984 C420.5269,21.7584 420.1769,21.0754 420.1769,20.3524 C420.1769,19.0604 421.2519,18.0084 422.5749,18.0084 C423.8959,18.0084 424.9719,19.0604 424.9719,20.3524 C424.9719,21.0754 424.6209,21.7584 424.0389,22.1984" id="Fill-1"></path>
        </g>
    </g>
</svg>