<?xml version="1.0" encoding="UTF-8"?>
<svg width="25px" height="23px" viewBox="0 0 25 23" version="1.1" xmlns="http://www.w3.org/2000/svg" xmlns:xlink="http://www.w3.org/1999/xlink">
    <!-- Generator: Sketch 48.2 (47327) - http://www.bohemiancoding.com/sketch -->
    <title>Group 3</title>
    <desc>Created with Sketch.</desc>
    <defs></defs>
    <g id="SEND-Copy-4" stroke="none" stroke-width="1" fill="none" fill-rule="evenodd" transform="translate(-50.000000, -89.000000)">
        <g id="Group-9" transform="translate(0.000000, -1.000000)" fill="#33144A" fill-rule="nonzero">
            <g id="Group-5" transform="translate(50.000000, 90.000000)">
                <g id="Group-3">
                    <path d="M18.4668763,17.5570573 C17.2617422,17.5570031 16.281268,16.58793 16.281268,15.3967428 L16.281268,11.8090854 C16.281268,10.6178981 17.2617422,9.64882507 18.4668763,9.64882507 L24.1618098,9.64882507 C24.1963096,9.64882507 24.23059,9.64985513 24.2647059,9.65137312 L24.2647059,6.07748603 C24.2647059,5.15753078 23.5102081,4.41176471 22.5794817,4.41176471 L1.68527908,4.41176471 C0.754497787,4.41171049 0,5.15747656 0,6.07743181 L0,21.1283421 C0,22.0482974 0.754497787,22.7941176 1.68527908,22.7941176 L22.5794817,22.7941176 C23.5102081,22.7941176 24.2647059,22.0483516 24.2647059,21.1283421 L24.2647059,17.554455 C24.23059,17.5560272 24.1963096,17.5570573 24.1618098,17.5570573 L18.4668763,17.5570573 Z" id="Shape"></path>
                    <path d="M24.052965,11.0294118 L18.5940938,11.0294118 C18.0710769,11.0294118 17.6470588,11.4936021 17.6470588,12.0661706 L17.6470588,15.8750059 C17.6470588,16.4475744 18.0710769,16.9117647 18.5940938,16.9117647 L24.052965,16.9117647 C24.5759819,16.9117647 25,16.447632 25,15.8750059 L25,12.0661706 C25,11.4935445 24.5759819,11.0294118 24.052965,11.0294118 Z M20.4751253,15.4669328 C19.7201996,15.4669328 19.1082256,14.7969793 19.1082256,13.9705307 C19.1082256,13.144082 19.7201996,12.4741285 20.4751253,12.4741285 C21.2300509,12.4741285 21.8420249,13.144082 21.8420249,13.9705307 C21.8420249,14.7969793 21.2300509,15.4669328 20.4751253,15.4669328 Z" id="Shape"></path>
                    <path d="M19.3765263,1.49519535 C19.0002335,0.353143062 17.7718899,-0.266790538 16.6329938,0.110526937 L8.08823529,2.94117647 L19.8529412,2.94117647 L19.3765263,1.49519535 Z" id="Shape"></path>
                </g>
            </g>
        </g>
    </g>
</svg>