<svg xmlns="http://www.w3.org/2000/svg" viewBox="0 0 183 33"><defs><style>.a{fill:#fff;}</style></defs><title>logo_app_mdl</title><polygon class="a" points="93 12 83 12 83 13 87.46 13 87.46 26 88.54 26 88.54 13 93 13 93 12"/><path class="a" d="M102,18.76a4.9,4.9,0,0,0-4.36-2.52,5.26,5.26,0,1,0,0,10.53A4.9,4.9,0,0,0,102,24.24v2.31h1V16.45h-1Zm-4.28,7.07a4.33,4.33,0,0,1,0-8.65,4.33,4.33,0,0,1,0,8.65Z"/><rect class="a" x="106.17" y="11.84" width="1.02" height="14.71"/><path class="a" d="M114.81,16.31a5.13,5.13,0,0,0-5.3,5.26,5.15,5.15,0,0,0,5.37,5.26,5,5,0,0,0,4.43-2.31l-.87-.5a3.91,3.91,0,0,1-3.49,1.8,4,4,0,0,1-4.28-3.75h9.22v-.5A5,5,0,0,0,114.81,16.31Zm-4.14,4.76a4,4,0,0,1,4.21-3.82,3.93,3.93,0,0,1,4,3.82Z"/><path class="a" d="M127,16.24a3.87,3.87,0,0,0-3.63,2.16V16.45h-1V26.55h1V21.21c0-2.74,1.6-4,3.56-4a2.81,2.81,0,0,1,3,3.1v6.27h1V20.28A3.72,3.72,0,0,0,127,16.24Z"/><path class="a" d="M135.94,13.71l-1,.29v2.52h-2.25v1h2.25V24.1c0,2.31,1.38,3,4.07,2.52v-.94c-2.11.14-3,.14-3-1.66V17.54h3v-1h-3Z"/><polygon class="a" points="156.42 18.76 148.14 18.76 148.14 12.42 147.05 12.42 147.05 26.55 148.14 26.55 148.14 19.77 156.42 19.77 156.42 26.55 157.51 26.55 157.51 12.42 156.42 12.42 156.42 18.76"/><path class="a" d="M168.11,21.79c0,2.74-1.6,4-3.56,4a2.81,2.81,0,0,1-3-3.1V16.45h-1v6.27a3.72,3.72,0,0,0,3.92,4,3.87,3.87,0,0,0,3.63-2.16v1.95h1V16.45h-1Z"/><path class="a" d="M177.63,16.17a4.74,4.74,0,0,0-4.36,2.59V12.42h-1V26.48h1V24.17a4.74,4.74,0,0,0,4.36,2.6,5.22,5.22,0,0,0,5.3-5.26A5.33,5.33,0,0,0,177.63,16.17Zm0,9.66a4.33,4.33,0,0,1,0-8.65,4.33,4.33,0,0,1,0,8.65Z"/><polygon class="a" points="48.87 12 44.46 19.39 40.06 12 38 12 38 26 39.85 26 39.85 15.13 44.39 22.66 44.61 22.66 49.15 15.06 49.15 25.93 50.93 25.93 50.93 12 48.87 12"/><path class="a" d="M60,12.32H54.57v14H60a6.73,6.73,0,0,0,6.68-7A6.73,6.73,0,0,0,60,12.32Zm0,12.29H56.44V14.11H60a4.92,4.92,0,0,1,4.89,5.21A5,5,0,0,1,60,24.61Z"/><polygon class="a" points="70.82 24.54 70.82 12.32 68.95 12.32 68.95 26.32 76.93 26.32 76.93 24.54 70.82 24.54"/><path class="a" d="M12.82,9.7A4.76,4.76,0,1,0,8,4.94,4.73,4.73,0,0,0,12.82,9.7Z"/><path class="a" d="M24.78,15c1.88-2.61-.57-5.67-3.47-5.17s-6,1.43-9.06,2.06c-2.25-.48-4.48-1-6.71-1.57-2-.47-4.18-.79-5.22,1.43s.95,4.09,2.32,5.66,2.78,3.28,4.23,4.88C7.41,24.57,8.29,26.82,9,29c.66,1.94,1.3,4.09,3.81,4s3-2.39,3.66-4.31c.79-2.18,1.43-4.44,2.14-6.65.9-1.11,1.92-2.16,2.86-3.22A35.93,35.93,0,0,0,24.78,15Z"/></svg>